# xmcd
#
# Track frame offsets: 
#        150
#        17431
#        34171
#        51494
#        66705
#        80456
#        95697
#
# Disc length: 1506 seconds
#
# Revision: 0
# Processed by: cddbd v1.5.2PL0 Copyright (c) Steve Scherf et al.
# Submitted via: ExactAudioCopy v1.0b1
#
DISCID=5d05e007
DTITLE=Beyoncé - B'Day Deluxe Edition - Cd 02
DYEAR=2007
DGENRE=R&B
TTITLE0=Amor Gitano
TTITLE1=Listen (Oye) [Spanish Version]
TTITLE2=Irreplaceable (Irreemplazable) [Spanish version]
TTITLE3=Beautiful Liar (Bello Embustero) (Beyonce) [Spanish Version]
TTITLE4=Beautiful Liar [Remix] (Beyonce and Shakira)
TTITLE5=Beautiful Liar [Spanglish Version] featuring Sasha A-K-A Beyon
TTITLE5=ce
TTITLE6=Irreplaceable (Irreemplazable) [Nortena Remix]
EXTD=
EXTT0=
EXTT1=
EXTT2=
EXTT3=
EXTT4=
EXTT5=
EXTT6=
PLAYORDER=
